<svg width="35" height="31" fill="none" xmlns="http://www.w3.org/2000/svg"><path d="M35 7.656v19.688a3.282 3.282 0 0 1-3.281 3.281H3.28A3.282 3.282 0 0 1 0 27.344V7.656a3.282 3.282 0 0 1 3.281-3.281h6.016l.84-2.249A3.277 3.277 0 0 1 13.208 0h8.58c1.366 0 2.59.848 3.069 2.126l.847 2.249h6.016A3.282 3.282 0 0 1 35 7.656ZM25.703 17.5c0-4.525-3.678-8.203-8.203-8.203-4.525 0-8.203 3.678-8.203 8.203 0 4.525 3.678 8.203 8.203 8.203 4.525 0 8.203-3.678 8.203-8.203Zm-2.187 0c0 3.315-2.7 6.016-6.016 6.016a6.024 6.024 0 0 1-6.016-6.016c0-3.315 2.7-6.016 6.016-6.016 3.315 0 6.016 2.7 6.016 6.016Z" fill="#DEDEDE"/></svg>