<svg width="35" height="35" fill="none" xmlns="http://www.w3.org/2000/svg"><path d="M17.532 0A17.44 17.44 0 0 1 29.59 4.847l2.52-2.52C33.176 1.26 35 2.015 35 3.524v9.46c0 .935-.758 1.693-1.694 1.693h-9.46c-1.508 0-2.264-1.824-1.197-2.89l2.946-2.947a11.769 11.769 0 0 0-7.99-3.194c-6.52-.057-12.016 5.22-11.96 11.956.054 6.39 5.235 11.753 11.855 11.753 2.902 0 5.645-1.036 7.806-2.933a.845.845 0 0 1 1.155.04l2.8 2.798a.848.848 0 0 1-.035 1.23A17.435 17.435 0 0 1 17.5 35C7.835 35 0 27.165 0 17.5 0 7.846 7.878-.017 17.532 0Z" fill="#DEDEDE"/></svg>