<svg width="46" height="34" fill="none" xmlns="http://www.w3.org/2000/svg"><ellipse cx="23" cy="16.904" rx="23" ry="16.904" fill="#132248"/><path fill-rule="evenodd" clip-rule="evenodd" d="M46 16.904c0 9.335-10.297 16.903-23 16.903-5.743 0-10.994-1.547-15.024-4.104l3.876-5.564 7.646 1.103.751 6.32 2.297.331-2.358-19.991-1.996-.288L6.319 28.542C2.403 25.51 0 21.413 0 16.904 0 7.568 10.297 0 23 0s23 7.568 23 16.904ZM19.352 23.2l-.644-6.264c-.01-.163-.03-.429-.058-.799l-.06-1.146a69.91 69.91 0 0 0-.055-.958c-.181.34-.37.678-.57 1.015a31.995 31.995 0 0 1-.992 1.637L13.116 22.3l6.236.9Zm7.788-11.986-5.87.755 4.684 19.687 7.13-.916c1.475-.19 2.701-.565 3.678-1.125.975-.57 1.656-1.31 2.044-2.22.397-.91.45-1.973.163-3.184-.238-.997-.631-1.793-1.182-2.388a4.81 4.81 0 0 0-2.004-1.297c-.784-.27-1.646-.413-2.586-.431l-.032-.135c.824-.263 1.482-.63 1.974-1.1.492-.47.818-1.026.977-1.666.167-.65.16-1.357-.022-2.12-.421-1.769-1.371-2.937-2.85-3.506-1.48-.568-3.514-.686-6.104-.354Zm2.519 8.378-3.97.51-1.544-6.49 3.573-.46c1.805-.231 3.177-.153 4.117.235.95.386 1.557 1.141 1.824 2.263.259 1.086.105 1.957-.46 2.613-.555.654-1.735 1.097-3.54 1.329Zm-1.76 9.802-1.752-7.366 4.097-.527c1.286-.165 2.345-.153 3.18.036.84.179 1.494.51 1.96.997.476.485.803 1.1.98 1.845.278 1.167.116 2.145-.485 2.935-.603.78-1.827 1.289-3.67 1.526l-4.31.554Z" fill="#fff"/></svg>