<svg width="75" height="61" fill="none" xmlns="http://www.w3.org/2000/svg"><ellipse cx="31.5" cy="37.849" rx="31.5" ry="23.151" fill="#fff"/><path fill-rule="evenodd" clip-rule="evenodd" d="M75 23.15c0 12.786-14.103 23.151-31.5 23.151-7.826 0-14.985-2.097-20.494-5.569l5.176-7.412 10.47 1.51 1.06 8.679 3.146.454-3.354-27.398-2.555-.369-16.212 22.957C15.325 34.996 12 29.359 12 23.151 12 10.365 26.103 0 43.5 0S75 10.365 75 23.15Zm-36.573 8.843-.902-8.435c-.123-1.069-.196-2.37-.22-3.9a38.6 38.6 0 0 1-2.12 3.562l-5.21 7.554 8.452 1.22Zm10.64-17.07-8.02 1.031 6.414 26.963 9.903-1.272c3.08-.396 5.314-1.38 6.701-2.952 1.4-1.574 1.814-3.566 1.24-5.975-.857-3.603-3.524-5.478-8.001-5.624l-.044-.185c1.726-.538 2.933-1.384 3.619-2.537.696-1.166.854-2.548.474-4.147-.55-2.311-1.794-3.894-3.73-4.747-1.938-.854-4.79-1.038-8.557-.554Zm3.464 11.454-5.437.698-2.101-8.834 4.854-.624c2.485-.319 4.378-.214 5.678.316 1.297.518 2.125 1.533 2.485 3.045.392 1.647.16 2.887-.696 3.72-.859.82-2.453 1.38-4.783 1.678Zm-2.405 13.442-2.4-10.088 5.65-.726c2.421-.311 4.314-.15 5.679.486 1.378.634 2.266 1.787 2.664 3.46.427 1.794.159 3.191-.804 4.19-.954.983-2.576 1.622-4.867 1.917l-5.922.76Z" fill="#132248"/></svg>